<?xml version="1.0" encoding="UTF-8"?>
<svg version="1.1" xmlns="http://www.w3.org/2000/svg" width="1254" height="1254">
<path d="M0 0 C1.6025371 0.00138269 1.6025371 0.00138269 3.23744869 0.00279331 C4.45887569 0.00141865 5.6803027 0.00004398 6.93874264 -0.00137234 C8.3046639 0.00216727 9.67058492 0.00580208 11.0365057 0.00952244 C12.46520644 0.00980431 13.89390733 0.00964659 15.32260799 0.00907993 C19.21293315 0.00879194 23.10322774 0.01468896 26.99354577 0.02165389 C31.05481548 0.02788713 35.11608582 0.0284912 39.17735958 0.0296793 C46.87322276 0.0327927 54.56907181 0.04100622 62.26492876 0.05102879 C71.02415457 0.06218964 79.78338105 0.0677003 88.5426122 0.07272422 C106.56589397 0.08318882 124.58916257 0.10078844 142.61243343 0.12304783 C143.84781529 5.09921211 143.03264687 6.99497791 140.48743343 11.49804783 C140.13559994 12.12944675 139.78376644 12.76084568 139.42127132 13.41137791 C138.62036908 14.84292515 137.81234003 16.2704997 136.9986639 17.69482517 C135.46103538 20.38824773 133.94430065 23.09287477 132.42883968 25.79882908 C127.9131973 33.8433648 123.37522776 41.87227297 118.67493343 49.81054783 C115.97957211 54.39068504 113.61474996 59.08322828 111.27649593 63.85351658 C108.60879693 69.09498151 105.68095709 74.18599704 102.77649593 79.29882908 C100.9752506 82.47017892 99.21965426 85.66334453 97.48743343 88.87304783 C94.87197051 93.69937169 92.10739866 98.42921206 89.32727718 103.16211033 C87.21253748 106.81352877 85.20537119 110.51715897 83.19837093 114.22851658 C81.11170079 118.03694656 78.95238808 121.80211948 76.79114437 125.56860447 C71.4420517 134.89656015 66.18320997 144.27613264 60.97180843 153.68164158 C57.93503378 159.13561905 54.86460436 164.57081824 51.80188656 170.01025486 C50.27669213 172.71941591 48.75247162 175.42912402 47.22840023 178.13891697 C46.48256211 179.46497832 45.73663065 180.79098718 44.99060726 182.11694431 C43.10135844 185.47492512 41.21325224 188.83353963 39.32727718 192.19336033 C33.81198114 202.01523348 28.25458138 211.81189951 22.62415218 221.56836033 C20.57883033 225.14804456 18.6552151 228.78643549 16.73743343 232.43554783 C14.03706429 237.54124579 11.21125353 242.52113239 8.18665218 247.44336033 C5.78400417 251.53322767 3.59675168 255.73600796 1.41516781 259.94726658 C-0.3034267 263.23230639 -2.12308243 266.19472861 -4.38756657 269.12304783 C-5.28884946 270.64949804 -6.1640842 272.19162925 -7.01256657 273.74804783 C-7.6506525 274.91207127 -7.6506525 274.91207127 -8.30162907 276.09961033 C-9.01599913 277.43070275 -9.71197325 278.7718612 -10.38756657 280.12304783 C-9.4492152 280.12190867 -9.4492152 280.12190867 -8.49190724 280.12074649 C28.55080761 280.0760299 65.59351848 280.04169475 102.63625478 280.02091717 C107.07997453 280.01841563 111.52369423 280.015827 115.9674139 280.01318455 C116.85211125 280.01265993 117.73680861 280.01213531 118.64831497 280.01159479 C132.989728 280.0028825 147.33112506 279.98710802 161.67252861 279.96874224 C176.37851865 279.95006606 191.0845003 279.93893595 205.79050171 279.93487084 C214.87130448 279.93212103 223.95206212 279.92342336 233.032851 279.90721489 C239.25246868 279.89667615 245.4720629 279.89344011 251.69168888 279.89604507 C255.28479043 279.89733124 258.8778129 279.89530359 262.47090054 279.88463688 C266.35883672 279.87317859 270.24666842 279.87704995 274.13461971 279.8825388 C275.85346223 279.87380027 275.85346223 279.87380027 277.60702884 279.86488521 C279.15962962 279.87085836 279.15962962 279.87085836 280.74359608 279.87695217 C281.64201438 279.87619273 282.54043268 279.87543329 283.46607578 279.87465084 C285.61243343 280.12304783 285.61243343 280.12304783 287.61243343 282.12304783 C289.13382656 282.11729587 290.65520336 282.06939666 292.17493343 281.99804783 C296.17425808 282.27165519 297.38306882 282.89368322 300.27258968 285.78320408 C306.61243343 293.84985831 306.61243343 293.84985831 306.61243343 297.12304783 C307.27243343 297.12304783 307.93243343 297.12304783 308.61243343 297.12304783 C309.76868343 298.66992283 309.76868343 298.66992283 311.11243343 300.87304783 C315.09412478 307.05387284 319.86720759 312.52814573 324.61243343 318.12304783 C329.78631056 324.33698884 334.82737146 330.63943132 339.73255062 337.06713963 C342.427875 340.59680552 345.16443007 344.08978974 347.92810726 347.56616306 C360.61243343 363.54517549 360.61243343 363.54517549 360.61243343 367.12304783 C361.27243343 367.12304783 361.93243343 367.12304783 362.61243343 367.12304783 C364.2438328 369.04892362 365.74966568 370.966315 367.23743343 372.99804783 C367.65766781 373.55363377 368.07790218 374.1092197 368.51087093 374.68164158 C371.61243343 378.86069495 371.61243343 378.86069495 371.61243343 381.12304783 C372.27243343 381.12304783 372.93243343 381.12304783 373.61243343 381.12304783 C375.01018464 382.82203852 376.32934169 384.58588433 377.61243343 386.37304783 C380.72839877 390.6470757 383.93703038 394.77506483 387.36243343 398.81054783 C392.09748708 404.41862699 396.55804942 410.20871389 400.97083187 416.072999 C403.9329684 419.99399079 406.98218041 423.79099286 410.20618343 427.49975681 C412.2650929 429.87643894 414.25016825 432.31136578 416.23743343 434.74804783 C416.97219906 435.64781345 417.70696468 436.54757908 418.46399593 437.47461033 C419.17298031 438.3485947 419.88196468 439.22257908 420.61243343 440.12304783 C421.36266781 440.9764072 422.11290218 441.82976658 422.88587093 442.70898533 C424.61243343 445.12304783 424.61243343 445.12304783 424.61243343 449.12304783 C240.47243343 449.12304783 56.33243343 449.12304783 -133.38756657 449.12304783 C-133.38756657 448.13304783 -133.38756657 447.14304783 -133.38756657 446.12304783 C-134.04756657 446.12304783 -134.70756657 446.12304783 -135.38756657 446.12304783 C-135.61600965 414.76775637 -135.79282563 383.41268627 -135.89821986 352.05675941 C-135.91072596 348.34952475 -135.92366928 344.64229175 -135.93688297 340.93505955 C-135.93950608 340.19705943 -135.94212918 339.45905931 -135.94483177 338.69869556 C-135.98826908 326.7706882 -136.0670718 314.84316597 -136.15909453 302.91544579 C-136.25282337 290.66381402 -136.30819905 278.41243519 -136.32845151 266.16045964 C-136.34212942 258.60844479 -136.38522214 251.05780137 -136.46673124 243.50620903 C-136.52616412 237.70196959 -136.53206545 231.89859617 -136.51864338 226.09411335 C-136.52138235 223.72299891 -136.541113 221.35182995 -136.57962132 218.98102665 C-136.80993609 204.06293054 -135.51227099 195.25595996 -125.38756657 184.12304783 C-124.18180986 182.3363139 -123.00688629 180.52766366 -121.88756657 178.68554783 C-119.13342292 174.27502063 -116.28373285 169.94082111 -113.38756657 165.62304783 C-110.50402683 161.31979514 -107.65196501 157.00435857 -104.88756657 152.62304783 C-102.123159 148.24172262 -99.27075128 143.92654977 -96.38756657 139.62304783 C-89.31590163 129.1497999 -89.31590163 129.1497999 -82.82116032 118.31836033 C-82.34807438 117.5939072 -81.87498844 116.86945408 -81.38756657 116.12304783 C-80.72756657 116.12304783 -80.06756657 116.12304783 -79.38756657 116.12304783 C-79.11944157 115.39730564 -78.85131657 114.67156345 -78.57506657 113.92382908 C-77.3980766 111.1478363 -76.03803215 108.82988833 -74.38756657 106.31054783 C-71.77394256 102.28121082 -69.20538046 98.2303599 -66.67882633 94.14624119 C-63.55000123 89.09244032 -60.42548989 84.0736356 -56.95006657 79.24804783 C-53.13693363 73.93496212 -49.80847221 68.33600055 -46.46984196 62.71728611 C-43.80225914 58.27115228 -40.9545478 54.08732332 -37.80040836 49.97216892 C-32.4787163 43.0071619 -27.66736029 35.63177387 -22.95006657 28.24804783 C-19.70344189 23.16951679 -16.44688385 18.098539 -13.13756657 13.06054783 C-12.53730656 12.13169773 -12.53730656 12.13169773 -11.92492008 11.18408298 C-9.42171354 7.39373542 -6.71733016 4.25187741 -3.38756657 1.12304783 C-2.38756657 0.12304783 -2.38756657 0.12304783 0 0 Z " fill="#E3B94B" transform="translate(523.3875665664673,524.8769521713257)"/>
<path d="M0 0 C183.81 0 367.62 0 557 0 C559 4 559 4 558.8125 6.1875 C558.544375 6.785625 558.27625 7.38375 558 8 C556.515 8.495 556.515 8.495 555 9 C555 12.96 555 16.92 555 21 C556.32 21.66 557.64 22.32 559 23 C559.06845271 51.79928743 559.12153673 80.59856526 559.15319599 109.39791805 C559.15694806 112.7987261 559.16083103 116.19953399 559.16479492 119.6003418 C559.16558185 120.27737518 559.16636878 120.95440856 559.16717956 121.6519581 C559.18022988 132.61124984 559.20388165 143.57049433 559.23145839 154.52975804 C559.25952302 165.77680088 559.27595397 177.02382012 559.28226548 188.27089971 C559.28617855 194.58745201 559.29538395 200.90389714 559.31719017 207.22041512 C559.3375474 213.1653562 559.34383527 219.11014594 559.33932304 225.05511856 C559.34014858 227.23720179 559.34611867 229.41929006 559.35761642 231.60134315 C559.37254834 234.5812215 559.36895081 237.5605289 559.36076355 240.54042053 C559.36950207 241.40327591 559.3782406 242.26613128 559.38724393 243.15513378 C559.32911073 250.98650734 557.08813957 255.95783426 552 262 C550.99431758 263.66324401 549.99335201 265.32936253 549 267 C548.34 267.66 547.68 268.32 547 269 C545.92303845 271.49047358 545.00761651 273.9759787 544.1875 276.5625 C543 279 543 279 540.6875 280.8125 C536.18619192 284.47635542 533.17205198 289.29261645 532 295 C531.34 295 530.68 295 530 295 C529.731875 295.556875 529.46375 296.11375 529.1875 296.6875 C527.42337578 300.12289979 525.74206894 303.25793106 523 306 C522.71125 306.763125 522.4225 307.52625 522.125 308.3125 C520.84198187 311.37748775 519.10864432 313.44406749 517 316 C515.47192624 318.44491801 514.04140547 320.92659939 512.625 323.4375 C511 326 511 326 508.5 328.875 C506.55127847 331.13690891 505.72760742 332.63558269 504.5 335.5 C503.25488297 338.40527307 502.43422456 339.85467179 500.4375 342.125 C498.19495534 344.77005268 497.05472427 346.73994318 496 350 C495.34 350 494.68 350 494 350 C493.71125 350.94875 493.4225 351.8975 493.125 352.875 C492 356 492 356 490 358 C489.29289322 359.64991582 488.62056011 361.31562256 488 363 C487.34 363 486.68 363 486 363 C485.6596875 364.5778125 485.6596875 364.5778125 485.3125 366.1875 C484.19958066 370.18755792 481.99949814 372.15432227 479 375 C478.63837971 376.32594105 478.30271961 377.65938457 478 379 C476.68870078 380.35500919 475.35308313 381.68671343 474 383 C472.95355934 384.63790712 471.9601817 386.31008021 471 388 C470.14811882 389.33479471 469.29377363 390.66801879 468.4375 392 C466.60584972 394.91298599 465.12389579 397.73048499 464 401 C463.34 401 462.68 401 462 401 C461.6596875 402.5778125 461.6596875 402.5778125 461.3125 404.1875 C460.18315433 408.19667711 458.05175692 410.17154237 455 413 C453.96642853 414.64605826 452.95939668 416.30963442 452 418 C451.34 418.66 450.68 419.32 450 420 C449.71125 420.78375 449.4225 421.5675 449.125 422.375 C447.85380435 425.34112319 446.29974972 426.76993966 444 429 C442.95355934 430.63790712 441.9601817 432.31008021 441 434 C439.70070819 436.01531021 438.39761946 438.02788537 437.0859375 440.03515625 C435.89839053 441.92932732 435.89839053 441.92932732 435.6550293 444.0144043 C435.43886963 444.66965088 435.22270996 445.32489746 435 446 C427.64579223 449.57641649 420.20937873 449.40059419 412.1862793 449.28125 C410.04263118 449.24970764 407.8997181 449.24023054 405.75585938 449.234375 C395.32887762 449.16443881 395.32887762 449.16443881 393 448 C391.64246616 447.91678623 390.28085802 447.89547763 388.92082214 447.90666199 C387.64017128 447.91327095 387.64017128 447.91327095 386.33364868 447.92001343 C385.39491913 447.92989288 384.45618958 447.93977234 383.48901367 447.94995117 C382.50188889 447.95623032 381.5147641 447.96250946 380.49772644 447.96897888 C378.34893132 447.98285417 376.20014879 447.99879544 374.05138206 448.01653099 C370.65155077 448.04309704 367.25178386 448.06101173 363.85188293 448.07600403 C354.18328127 448.11882908 344.51480742 448.16645104 334.84643555 448.24682617 C328.93731267 448.29531854 323.02836975 448.32433712 317.11907387 448.34057045 C314.86517289 448.35047992 312.61129188 448.36770789 310.35750389 448.39235497 C307.20450247 448.42606276 304.05232903 448.43498456 300.89916992 448.43823242 C299.96651306 448.45418457 299.0338562 448.47013672 298.07293701 448.48657227 C293.73953708 448.4662001 291.6004702 448.39035102 287.88130188 445.97261047 C287.26047226 445.32164902 286.63964264 444.67068756 286 444 C286.61881891 439.44165788 288.46891904 435.72047585 290.5625 431.6875 C291.29580159 430.25011664 292.02886817 428.81261336 292.76171875 427.375 C293.13603027 426.64539063 293.5103418 425.91578125 293.89599609 425.1640625 C295.25724266 422.49575434 296.58626588 419.81225946 297.9140625 417.12719727 C304.36015295 404.11546235 311.01175619 391.21499829 318.43359375 378.73046875 C320.5470115 375.04648119 322.38578947 371.24813324 324.25 367.43359375 C326.90487921 362.22457852 329.78193511 357.14182117 332.66137695 352.05419922 C333.07863037 351.31314941 333.49588379 350.57209961 333.92578125 349.80859375 C334.30130127 349.14657959 334.67682129 348.48456543 335.0637207 347.80249023 C336.13589552 345.85344164 336.13589552 345.85344164 337 343 C337.66 343 338.32 343 339 343 C339.26167969 342.31421875 339.52335937 341.6284375 339.79296875 340.921875 C343.48817992 331.97683308 348.22061597 323.40601689 353 315 C353.69998092 313.74912412 354.39912101 312.49777753 355.09765625 311.24609375 C359.76343877 302.89607111 364.51433018 294.61725738 369.55859375 286.48828125 C372.83731598 281.14911513 375.61936638 275.79754306 378 270 C378.66 270 379.32 270 380 270 C380.07476563 269.3296875 380.14953125 268.659375 380.2265625 267.96875 C381.25981347 264.00273618 383.21418502 260.95320116 385.375 257.5 C385.77460937 256.84902344 386.17421875 256.19804687 386.5859375 255.52734375 C387.71927011 253.6819502 388.85856005 251.84038679 390 250 C391.88231518 246.95544994 393.34542425 244.53470906 394 241 C394.66 241 395.32 241 396 241 C396.3403125 239.7934375 396.3403125 239.7934375 396.6875 238.5625 C398.34022851 234.07652262 400.61942113 230.13361259 403 226 C403.87821348 224.4393039 404.75328988 222.87683779 405.625 221.3125 C406.00914062 220.62800781 406.39328125 219.94351563 406.7890625 219.23828125 C408.2579443 216.52321909 409.62073019 213.76178496 411 211 C412.63110375 207.82558258 414.28268074 204.66210634 415.9375 201.5 C416.36740234 200.67113281 416.79730469 199.84226562 417.24023438 198.98828125 C419.09785364 195.44217346 420.96532062 192.05192635 423.19140625 188.71875 C424.88898543 186.16688152 425.90516659 183.84384115 427 181 C427.98934442 179.27323971 429.01100153 177.56463145 430.0625 175.875 C431.72679402 173.19748052 432.99990801 171.00027598 434 168 C433.3671077 168.0018986 432.73421541 168.0037972 432.08214456 168.00575334 C394.58834755 168.11759546 357.09457517 168.20340832 319.60064556 168.25532665 C315.10070679 168.26158033 310.60076835 168.26805193 306.10083008 168.2746582 C304.75702076 168.27662553 304.75702076 168.27662553 303.38606378 168.2786326 C288.87203722 168.30040096 274.35810948 168.33983034 259.84414158 168.38576398 C244.95621023 168.43248886 230.0683307 168.46028699 215.18032902 168.47044247 C205.99041429 168.47730989 196.80077885 168.49901516 187.61095008 168.53958233 C181.31279206 168.56597175 175.01477884 168.57400965 168.71656952 168.56750689 C165.08040495 168.56429801 161.44472908 168.56928491 157.80865097 168.59602737 C153.86906268 168.62479099 149.93011477 168.61496354 145.99043274 168.60127258 C144.26135232 168.62311889 144.26135232 168.62311889 142.49734098 168.64540654 C134.74936546 168.57229291 134.74936546 168.57229291 130.89976788 165.63234234 C130.27284448 164.76366937 129.64592108 163.8949964 129 163 C128.21238281 162.1028125 127.42476562 161.205625 126.61328125 160.28125 C125.85402344 159.3634375 125.09476563 158.445625 124.3125 157.5 C123.54550781 156.5821875 122.77851562 155.664375 121.98828125 154.71875 C120.12874281 152.17604125 119.00534879 149.96766061 118 147 C117.34 147 116.68 147 116 147 C114.23772253 144.90936656 112.57883213 142.80766121 110.9375 140.625 C106.82829488 135.26481386 102.54528646 130.19070413 97.97265625 125.21484375 C95.7069798 122.67100504 93.71743819 120.00148709 91.71484375 117.25 C89.4735672 114.3092818 87.08540808 111.50032058 84.6875 108.6875 C78.53926385 101.47286073 72.44476684 94.22050215 66.6875 86.6875 C63.18971795 82.14765356 59.442645 77.84265988 55.69091797 73.51342773 C51.62042234 68.78899401 47.76316039 63.92621093 43.9543457 58.98974609 C40.46003069 54.49441223 36.71882734 50.2961363 32.77734375 46.18359375 C31 44 31 44 29.94140625 41.28515625 C29.47541016 40.15400391 29.47541016 40.15400391 29 39 C27.515 38.505 27.515 38.505 26 38 C22.58815461 34.68314799 19.64071303 30.99207178 17.0625 27 C14.71173542 23.58070607 12.00028061 20.91647228 9.0390625 18.02734375 C6.18856294 15.19322637 3.33904228 12.2782032 1 9 C1 8.34 1 7.68 1 7 C0.34 7 -0.32 7 -1 7 C-0.67 4.69 -0.34 2.38 0 0 Z " fill="#F1CE69" transform="translate(391,246)"/>
</svg>
